HIERARCHY
ROOT pelvis
{
	OFFSET 0.000000 0.000000 0.000000
	CHANNELS 6 Xposition Yposition Zposition Zrotation Xrotation Yrotation
	JOINT lfemur
	{
		OFFSET 11.446000 0.000000 0.000000
		CHANNELS 3 Zrotation Xrotation Yrotation
		JOINT ltibia
		{
			OFFSET 0.000000 -42.030400 0.000000
			CHANNELS 3 Zrotation Xrotation Yrotation
			JOINT lfoot
			{
				OFFSET 0.000000 -39.930200 0.000000
				CHANNELS 3 Zrotation Xrotation Yrotation
				JOINT ltoes
				{
					OFFSET 0.000000 0.000000 11.775800
					CHANNELS 3 Zrotation Xrotation Yrotation
					End Site
					{
					    OFFSET 0.000000 0.000000 5.000000
					}
				}
			}
		}
	}
	JOINT rfemur
	{
		OFFSET -11.446000 0.000000 0.000000
		CHANNELS 3 Zrotation Xrotation Yrotation
		JOINT rtibia
		{
			OFFSET 0.000000 -42.030400 0.000000
			CHANNELS 3 Zrotation Xrotation Yrotation
			JOINT rfoot
			{
				OFFSET 0.000000 -39.930200 0.000000
				CHANNELS 3 Zrotation Xrotation Yrotation
				JOINT rtoes
				{
					OFFSET 0.000000 0.000000 11.775800
					CHANNELS 3 Zrotation Xrotation Yrotation
					End Site
					{
					    OFFSET 0.000000 0.000000 5.000000
					}
				}
			}
		}
	}
	JOINT thorax
	{
		OFFSET 0.000000 11.255600 -5.000000
		CHANNELS 3 Zrotation Xrotation Yrotation
		JOINT head
		{
			OFFSET 0.000000 43.799300 0.000000
			CHANNELS 3 Zrotation Xrotation Yrotation
			End Site
			{
			    OFFSET 0.000000 5.000000 0.000000
			}
		}
		JOINT lclavicle
		{
			OFFSET 0.000000 39.863000 0.000000
			CHANNELS 3 Zrotation Xrotation Yrotation
			JOINT lhumerus
			{
				OFFSET 17.380600 4.958300 0.000000
				CHANNELS 3 Zrotation Xrotation Yrotation
				JOINT lradius
				{
					OFFSET 0.000000 -27.561300 0.000000
					CHANNELS 3 Zrotation Xrotation Yrotation
					JOINT lhand
					{
						OFFSET 0.000000 -26.933000 0.000000
						CHANNELS 3 Zrotation Xrotation Yrotation
						End Site
						{
						    OFFSET 0.000000 -5.000000 0.000000
						}
					}
				}
			}
		}
		JOINT rclavicle
		{
			OFFSET 0.000000 39.863000 0.000000
			CHANNELS 3 Zrotation Xrotation Yrotation
			JOINT rhumerus
			{
				OFFSET -17.380600 4.958300 0.000000
				CHANNELS 3 Zrotation Xrotation Yrotation
				JOINT rradius
				{
					OFFSET 0.000000 -27.561300 0.000000
					CHANNELS 3 Zrotation Xrotation Yrotation
					JOINT rhand
					{
						OFFSET 0.000000 -26.933000 0.000000
						CHANNELS 3 Zrotation Xrotation Yrotation
						End Site
						{
						    OFFSET 0.000000 -5.000000 0.000000
						}
					}
				}
			}
		}
	}
}
MOTION
Frames:	16
Frame Time:	0.0333333
144.609500 81.234700 8.856900 -1.259302 -7.133705 -141.773707 11.402391 -27.781587 -5.478950 -0.000000 18.883143 -0.000000 -0.000000 11.312008 13.888731 -0.000000 -1.334532 -0.000000 -12.711194 -17.751504 -10.440788 -0.000000 45.378338 -0.000000 -0.000000 -14.260384 0.497573 -0.000000 -29.581340 0.000000 -5.773207 22.896007 -1.252013 1.979713 26.116468 30.133209 -11.764401 -0.000000 -3.812292 31.235152 -2.565263 13.661714 -0.000000 -13.495486 -52.656256 6.872854 -5.030560 -0.000000 19.388790 -0.000000 2.543946 -42.293391 1.047885 -18.904618 0.000002 -32.178044 26.648898 10.666641 -7.037258 0.000000 
145.871400 82.373300 8.859900 -1.557955 -7.663549 -142.803715 10.189847 -27.044216 -4.676105 0.000000 20.292800 -0.000000 -0.000000 11.363905 13.705948 -0.000000 -1.332830 0.000000 -11.445374 -17.658676 -8.046574 -0.000000 42.445147 -0.000000 -0.000000 -12.387215 -0.816042 -0.000000 -29.572888 -0.000000 -5.430055 22.552284 -1.417524 1.746754 26.620327 30.886149 -11.932886 -0.000000 -3.191187 30.048199 -0.901767 12.135655 -0.000000 -15.322985 -49.719390 6.405426 -5.152214 -0.000000 19.974456 0.000000 1.475766 -44.287805 4.281070 -24.398515 0.000000 -29.171659 24.828617 11.346490 -7.264058 0.000000 
146.715600 83.594000 8.809100 -1.991686 -7.992470 -143.400316 8.470346 -26.124346 -3.727791 -0.000000 22.110811 -0.000000 -0.000000 11.159726 11.972499 0.000000 -1.366525 0.000000 -10.522567 -16.493647 -5.867156 0.000000 38.654600 -0.000000 -0.000000 -10.185077 -2.244615 -0.000000 -29.567386 -0.000000 -4.882429 22.344134 -1.980915 1.206496 27.295590 31.565789 -12.047833 -0.000000 -2.898981 28.520202 0.250599 11.263398 -0.000000 -17.094446 -47.255876 6.529004 -5.287089 -0.000000 20.591212 0.000000 0.288273 -46.366649 7.493915 -28.533797 -0.000000 -26.824552 22.597397 13.672000 -8.055302 -0.000000 
147.420300 84.640800 8.798800 -2.206069 -8.361680 -143.754200 6.606773 -25.386662 -3.687539 0.000000 23.972808 -0.000000 -0.000000 10.747345 11.180172 -0.000000 -1.407472 0.000000 -9.851590 -15.341474 -4.335359 -0.000000 34.886763 -0.000000 -0.000000 -7.923278 -3.143052 -0.000000 -29.563712 -0.000000 -4.161452 22.022060 -2.578608 0.783640 27.653998 32.357158 -12.002747 0.000000 -2.877828 27.073113 1.155834 8.790156 0.000001 -18.987057 -47.560989 7.743280 -4.543002 0.000000 21.381218 -0.000000 -1.152011 -48.436983 10.817999 -29.824298 -0.000000 -25.583757 23.619195 12.352001 -7.605649 -0.000000 
148.134000 85.380700 8.771500 -2.092227 -8.539154 -144.275449 5.326588 -24.616244 -3.192333 -0.000000 25.969288 -0.000000 -0.000000 9.843569 10.804424 -0.000000 -1.435587 0.000000 -8.771711 -14.476572 -2.373838 0.000000 31.641671 -0.000000 -0.000000 -6.156843 -4.324133 -0.000000 -29.560662 -0.000000 -3.239587 21.764631 -3.021234 0.268788 27.955093 33.411067 -11.520597 -0.000000 -3.015543 25.428430 1.284108 7.343977 0.000001 -20.904441 -45.804411 7.533614 -5.185050 0.000000 22.172220 0.000000 -2.571323 -50.440786 13.375091 -30.859062 0.000000 -24.580682 22.845732 11.952076 -7.469104 0.000000 
148.744700 85.809600 8.832800 -1.969340 -8.696168 -145.185312 4.389015 -23.857176 -2.167418 0.000000 28.304308 0.000000 -0.000000 9.054477 9.505654 -0.000000 -1.480677 0.000000 -8.052905 -14.319833 -1.004961 0.000000 29.750333 -0.000000 -0.000000 -5.029738 -4.675291 -0.000000 -29.555669 0.000000 -2.442774 21.715653 -3.369843 -0.132440 27.947942 34.698461 -11.005981 -0.000000 -3.288261 24.161385 1.558257 4.900987 -0.000002 -23.890348 -43.707701 7.717508 -5.121427 -0.000000 22.720859 -0.000000 -4.075599 -51.981314 14.927408 -31.180302 -0.000000 -24.104143 22.495830 11.201545 -7.215304 -0.000000 
149.150900 85.938900 8.947700 -2.232734 -8.677794 -146.349719 3.338702 -22.488678 -1.034796 -0.000000 30.144759 -0.000000 -0.000000 9.145808 5.747824 -0.000000 -1.584166 0.000000 -7.875555 -14.571616 -0.232580 -0.000000 29.440143 -0.000000 -0.000000 -4.539310 -4.197261 0.000000 -29.553528 0.000000 -1.966761 22.201544 -4.134669 -0.584529 27.910057 36.203817 -10.474430 0.000000 -3.449936 23.443700 1.570389 2.521597 -0.000000 -26.841363 -41.972142 7.682647 -5.367774 -0.000000 22.916003 0.000000 -4.636630 -53.028757 16.217842 -32.259545 -0.000000 -23.522500 22.474855 10.946038 -7.129267 -0.000000 
149.642000 85.787900 9.169200 -1.934489 -8.777520 -147.330671 2.819639 -21.303635 -0.620990 0.000000 30.756263 0.000000 0.000000 10.873819 0.142164 0.000000 -1.706079 -0.000000 -7.288242 -15.823973 0.433035 -0.000000 30.243490 -0.000000 -0.000000 -4.557992 -3.961074 -0.000000 -29.553074 -0.000000 -1.243541 22.418606 -5.148052 -0.797524 27.683883 37.567759 -9.782686 -0.000000 -3.712237 23.229797 0.942265 0.217668 0.000000 -28.827402 -42.519873 7.266605 -6.275836 -0.000000 22.911670 0.000000 -4.805626 -53.223954 17.292207 -33.200983 -0.000000 -23.527929 21.013876 11.849518 -7.436162 0.000000 
150.168600 85.449600 9.423400 -1.390928 -8.860836 -148.657766 2.828893 -19.899508 -0.833187 -0.000000 29.593898 -0.000000 -0.000000 7.886112 2.159382 -0.000000 -1.680166 -0.000000 -6.394982 -17.705926 1.213264 -0.000000 31.864898 -0.000000 0.000000 -4.742309 -3.373949 -0.000000 -29.553815 -0.000000 -0.641715 22.406415 -5.378914 -0.431352 27.392551 38.299640 -8.794817 -0.000000 -4.303898 23.013186 -0.063694 -1.685275 0.000001 -29.858470 -44.559212 7.425524 -6.965299 -0.000000 22.977070 -0.000000 -5.405188 -53.327540 17.888561 -33.828111 0.000000 -23.417579 19.773215 12.285911 -7.583435 0.000000 
150.602500 85.037500 9.693900 -1.034537 -9.330115 -150.134408 2.932822 -17.838855 -1.684158 -0.000000 24.603055 -0.000000 -0.000000 5.865008 6.180782 -0.000000 -1.686133 0.000000 -5.725001 -20.049421 2.362879 0.000000 33.993264 -0.000000 0.000000 -5.197794 -3.127623 0.000000 -29.555269 0.000000 -0.577109 22.370742 -5.770329 0.002785 26.994307 39.082364 -7.889642 -0.000000 -4.402892 23.356307 -1.474960 -3.606176 -0.000002 -30.221091 -46.300881 7.554964 -7.674471 -0.000000 23.275612 -0.000000 -5.514359 -53.240698 18.522479 -34.438294 0.000000 -23.701648 20.240038 12.736933 -7.738242 0.000000 
151.084000 84.901100 9.939800 -1.066678 -9.899576 -151.478527 3.380180 -18.319088 -0.276531 -0.000000 24.506287 -0.000000 0.000000 5.849404 5.881210 0.000000 -1.686316 -0.000000 -5.188445 -21.782413 3.894052 -0.000000 35.172705 -0.000000 0.000000 -5.108749 -3.473770 0.000000 -29.554535 -0.000000 -0.879523 22.772089 -6.054506 0.317820 26.342214 39.411899 -7.514501 -0.000000 -4.768269 24.542966 -2.668931 -4.739173 0.000001 -31.068906 -46.875263 7.710175 -7.330777 -0.000000 23.879448 -0.000000 -5.916254 -52.694697 18.570472 -35.154296 -0.000001 -24.097331 19.896261 12.358291 -7.610214 0.000000 
151.531600 85.098900 10.105200 -1.211375 -10.249453 -152.303664 3.673606 -19.188113 0.775235 0.000000 25.316178 0.000000 -0.000000 7.422246 5.671881 -0.000000 -1.710990 0.000000 -4.790296 -22.259967 4.952950 -0.000000 34.675092 -0.000000 -0.000000 -4.421061 -3.890357 0.000000 -29.552510 -0.000000 -0.905444 23.600787 -6.547157 0.519400 25.588236 39.230384 -6.954587 0.000000 -4.696862 25.216608 -4.274440 -4.609144 0.000000 -31.645553 -46.477022 8.030394 -7.652620 0.000000 23.843324 0.000000 -5.879817 -50.810452 19.340238 -34.489911 -0.000000 -25.027992 19.126518 12.274520 -7.583832 -0.000000 
152.011900 85.355300 10.371200 -1.119446 -10.905249 -153.120998 3.896920 -19.137002 1.611284 -0.000000 23.614026 -0.000000 -0.000000 8.742419 5.835513 0.000000 -1.720877 -0.000000 -4.631585 -23.132767 5.077867 -0.000000 34.004859 0.000000 0.000000 -3.388410 -3.640738 -0.000000 -29.552718 -0.000000 -0.902850 23.587197 -6.517461 0.323188 25.489864 38.981641 -6.687414 0.000000 -4.652867 25.814368 -5.491894 -4.328106 0.000002 -32.179614 -46.004918 8.165773 -7.369093 -0.000000 23.647937 0.000000 -6.086008 -48.839873 19.976434 -33.469283 0.000000 -25.566711 20.102044 12.892639 -7.794711 0.000000 
152.496000 85.529200 10.598800 -0.660749 -11.699843 -154.244667 4.594228 -19.171392 3.122873 -0.000000 21.769989 -0.000000 0.000000 9.582873 5.781409 0.000000 -1.726201 -0.000000 -4.113898 -24.316304 5.359107 -0.000000 33.290267 0.000000 0.000000 -2.468717 -2.996589 0.000000 -29.551964 0.000000 -0.689390 23.142093 -6.315558 0.158658 25.605864 38.600708 -6.715573 0.000000 -4.878594 26.474296 -5.777969 -3.681774 -0.000001 -33.318723 -45.358935 8.040346 -7.135237 -0.000000 23.647412 0.000000 -5.785922 -47.693114 20.379926 -32.545943 0.000000 -25.531474 20.524197 12.881560 -7.792004 -0.000000 
152.981500 85.645300 10.732800 -0.235829 -12.081062 -155.517172 5.352174 -18.824846 4.456311 -0.000000 20.177157 0.000000 -0.000000 9.888625 6.327647 -0.000000 -1.720737 -0.000000 -3.262133 -24.983984 6.076969 -0.000000 32.464463 -0.000000 0.000000 -1.563835 -2.336974 0.000000 -29.551878 -0.000000 -0.450066 22.887193 -6.226575 -0.308407 25.863162 39.037461 -6.531663 0.000000 -4.751857 26.955800 -5.931744 -3.919591 0.000002 -33.929026 -44.723039 8.264061 -7.005112 -0.000000 23.696515 -0.000000 -5.413158 -46.821365 20.219155 -32.778659 -0.000000 -25.317970 20.795692 12.881378 -7.792528 0.000000 
153.433700 85.658100 10.760600 -0.135624 -12.201359 -156.335932 5.798833 -18.549312 4.786479 -0.000000 19.497134 -0.000000 0.000000 10.130360 6.858636 -0.000000 -1.723733 -0.000000 -2.859974 -25.478508 6.060347 -0.000000 32.447633 -0.000000 0.000000 -1.189302 -1.288639 -0.000000 -29.552268 0.000000 -0.305271 23.060269 -6.458578 -0.531786 26.026611 39.094879 -6.109344 0.000000 -4.721536 27.354728 -6.323452 -4.471405 -0.000002 -33.375301 -45.701487 7.932921 -7.604450 0.000000 23.565864 0.000000 -5.329132 -45.974748 19.720730 -32.793339 0.000000 -25.225503 21.071116 12.298460 -7.595724 -0.000000 
